<svg width="393" height="138" viewBox="0 0 393 138" fill="none" xmlns="http://www.w3.org/2000/svg">
    <path d="M1.98241 48.8611C2.77233 37.6488 11.8872 28.8351 23.1197 28.4221L89 26L154.88 28.4221C166.113 28.8351 175.228 37.6488 176.018 48.8611L178 77L176.018 105.139C175.228 116.351 166.113 125.165 154.88 125.578L89 128L23.1197 125.578C11.8872 125.165 2.77233 116.351 1.98241 105.139L0 77L1.98241 48.8611Z" fill="#338217"/>
    <path d="M210.56 114.256C209.707 99.152 209.28 86.0107 209.28 74.832C209.28 63.568 209.536 51.8347 210.048 39.632L194.432 41.808L191.616 26.96C199.979 25.5093 208.256 24.4427 216.448 23.76L240.384 22.48L242.816 36.688C238.123 36.944 232.832 37.328 226.944 37.84C226.432 50.128 226.176 61.392 226.176 71.632C226.176 81.872 226.347 96.5493 226.688 115.664L210.56 114.256ZM284.634 53.968L284.378 74.192C284.378 93.2213 284.719 107.216 285.402 116.176L272.73 114.896C272.474 111.312 271.919 107.685 271.066 104.016C266.373 110.928 261.637 114.384 256.858 114.384C252.165 114.384 248.41 112.763 245.594 109.52C242.778 106.277 241.37 101.797 241.37 96.08C241.37 84.9867 242.181 71.76 243.802 56.4L258.65 57.808C257.114 72.4 256.346 84.5173 256.346 94.16C256.346 98.512 257.711 100.688 260.442 100.688C261.722 100.688 263.258 98.9387 265.05 95.44C266.927 91.9413 268.421 87.7173 269.53 82.768C269.445 80.8907 269.402 78.672 269.402 76.112C269.402 73.552 269.53 65.744 269.786 52.688L284.634 53.968ZM329.04 53.712C333.136 53.712 336.165 55.9733 338.128 60.496C340.176 65.0187 341.2 70.3947 341.2 76.624C341.2 82.768 340.517 88.8693 339.152 94.928C337.872 100.987 335.781 106.149 332.88 110.416C330.064 114.597 326.821 116.688 323.152 116.688C317.776 116.688 313.339 114.299 309.84 109.52C309.84 110.715 309.925 112.421 310.096 114.64L298.832 113.488C298.32 103.248 298.064 89.5093 298.064 72.272C298.064 54.9493 298.533 37.584 299.472 20.176L314.064 21.456C313.04 38.2667 312.528 53.5413 312.528 67.28C318.245 58.2347 323.749 53.712 329.04 53.712ZM312.528 89.168L312.656 99.152C313.68 100.603 314.576 101.627 315.344 102.224C316.112 102.736 317.264 102.992 318.8 102.992C320.933 102.992 322.811 100.645 324.432 95.952C326.053 91.1733 326.864 86.6507 326.864 82.384C326.864 78.1173 326.608 75.0453 326.096 73.168C325.669 71.2907 324.688 70.352 323.152 70.352C319.909 70.352 316.368 76.624 312.528 89.168ZM368.677 104.784C371.92 104.784 375.376 101.669 379.045 95.44L388.773 101.2C387.152 104.016 385.573 106.405 384.037 108.368C382.586 110.331 380.368 112.208 377.381 114C374.394 115.792 371.066 116.688 367.397 116.688C362.021 116.688 357.498 114.427 353.829 109.904C350.16 105.296 348.325 99.1093 348.325 91.344C348.325 82.4693 349.904 74.192 353.061 66.512C354.768 62.5013 357.2 59.2587 360.357 56.784C363.6 54.224 366.885 52.944 370.213 52.944C373.626 52.944 376.357 53.4987 378.405 54.608C380.453 55.632 382.074 56.8267 383.269 58.192C384.549 59.472 385.658 61.392 386.597 63.952C387.536 66.512 388.176 68.6027 388.517 70.224C388.944 71.8453 389.285 74.192 389.541 77.264C389.882 81.36 390.053 85.072 390.053 88.4C383.226 90.2773 374.394 91.984 363.557 93.52C363.813 96.9333 364.41 99.664 365.349 101.712C366.288 103.76 367.397 104.784 368.677 104.784ZM371.493 65.488C369.616 65.488 367.909 67.3653 366.373 71.12C364.922 74.8747 364.069 79.2267 363.813 84.176C368.336 83.2373 372.261 82.3413 375.589 81.488C375.589 70.8213 374.224 65.488 371.493 65.488Z" fill="white"/>
    <path d="M210.56 114.256L209.062 114.341L209.136 115.637L210.43 115.75L210.56 114.256ZM210.048 39.632L211.547 39.6949L211.622 37.8982L209.841 38.1464L210.048 39.632ZM194.432 41.808L192.958 42.0875L193.224 43.4908L194.639 43.2936L194.432 41.808ZM191.616 26.96L191.36 25.4821L189.858 25.7425L190.142 27.2395L191.616 26.96ZM216.448 23.76L216.368 22.2621L216.346 22.2633L216.323 22.2652L216.448 23.76ZM240.384 22.48L241.862 22.2269L241.637 20.9108L240.304 20.9821L240.384 22.48ZM242.816 36.688L242.898 38.1858L244.579 38.0941L244.294 36.4349L242.816 36.688ZM226.944 37.84L226.814 36.3456L225.5 36.4599L225.445 37.7776L226.944 37.84ZM226.688 115.664L226.558 117.158L228.218 117.303L228.188 115.637L226.688 115.664ZM212.058 114.171C211.205 99.0865 210.78 85.9746 210.78 74.832H207.78C207.78 86.0467 208.208 99.2175 209.062 114.341L212.058 114.171ZM210.78 74.832C210.78 63.5906 211.035 51.8783 211.547 39.6949L208.549 39.5691C208.037 51.791 207.78 63.5454 207.78 74.832H210.78ZM209.841 38.1464L194.225 40.3224L194.639 43.2936L210.255 41.1176L209.841 38.1464ZM195.906 41.5285L193.09 26.6805L190.142 27.2395L192.958 42.0875L195.906 41.5285ZM191.872 28.4379C200.193 26.9946 208.426 25.9337 216.573 25.2548L216.323 22.2652C208.086 22.9516 199.765 24.0241 191.36 25.4821L191.872 28.4379ZM216.528 25.2579L240.464 23.9779L240.304 20.9821L216.368 22.2621L216.528 25.2579ZM238.906 22.7331L241.338 36.9411L244.294 36.4349L241.862 22.2269L238.906 22.7331ZM242.734 35.1902C238.021 35.4473 232.714 35.8326 226.814 36.3456L227.074 39.3344C232.95 38.8234 238.224 38.4407 242.898 38.1858L242.734 35.1902ZM225.445 37.7776C224.933 50.0824 224.676 61.3675 224.676 71.632H227.676C227.676 61.4164 227.931 50.1736 228.443 37.9024L225.445 37.7776ZM224.676 71.632C224.676 81.8855 224.847 96.5734 225.188 115.691L228.188 115.637C227.846 96.5253 227.676 81.8585 227.676 71.632H224.676ZM226.818 114.17L210.69 112.762L210.43 115.75L226.558 117.158L226.818 114.17ZM284.634 53.968L286.134 53.987L286.152 52.5933L284.763 52.4735L284.634 53.968ZM284.378 74.192L282.878 74.173L282.878 74.1825V74.192H284.378ZM285.402 116.176L285.251 117.668L287.034 117.848L286.898 116.062L285.402 116.176ZM272.73 114.896L271.234 115.003L271.324 116.262L272.579 116.388L272.73 114.896ZM271.066 104.016L272.527 103.676L271.751 100.338L269.825 103.173L271.066 104.016ZM245.594 109.52L244.461 110.504L245.594 109.52ZM243.802 56.4L243.944 54.9067L242.466 54.7666L242.31 56.2425L243.802 56.4ZM258.65 57.808L260.142 57.965L260.3 56.4578L258.792 56.3147L258.65 57.808ZM265.05 95.44L263.728 94.7308L263.721 94.7434L263.715 94.7562L265.05 95.44ZM269.53 82.768L270.994 83.0961L271.038 82.9003L271.028 82.6999L269.53 82.768ZM269.786 52.688L269.915 51.1935L268.318 51.0559L268.286 52.6586L269.786 52.688ZM283.134 53.949L282.878 74.173L285.878 74.211L286.134 53.987L283.134 53.949ZM282.878 74.192C282.878 93.2272 283.219 107.27 283.906 116.29L286.898 116.062C286.22 107.162 285.878 93.2155 285.878 74.192H282.878ZM285.553 114.684L272.881 113.404L272.579 116.388L285.251 117.668L285.553 114.684ZM274.226 114.789C273.964 111.123 273.397 107.418 272.527 103.676L269.605 104.356C270.441 107.952 270.984 111.501 271.234 115.003L274.226 114.789ZM269.825 103.173C265.205 109.978 260.86 112.884 256.858 112.884V115.884C262.413 115.884 267.541 111.878 272.307 104.859L269.825 103.173ZM256.858 112.884C252.554 112.884 249.229 111.418 246.727 108.536L244.461 110.504C247.591 114.107 251.776 115.884 256.858 115.884V112.884ZM246.727 108.536C244.216 105.646 242.87 101.557 242.87 96.08H239.87C239.87 102.038 241.34 106.909 244.461 110.504L246.727 108.536ZM242.87 96.08C242.87 85.0551 243.676 71.8838 245.294 56.5575L242.31 56.2425C240.685 71.6362 239.87 84.9182 239.87 96.08H242.87ZM243.66 57.8933L258.508 59.3013L258.792 56.3147L243.944 54.9067L243.66 57.8933ZM257.158 57.651C255.619 72.2713 254.846 84.4454 254.846 94.16H257.846C257.846 84.5893 258.609 72.5287 260.142 57.965L257.158 57.651ZM254.846 94.16C254.846 96.4444 255.196 98.4128 256.099 99.8532C257.077 101.411 258.6 102.188 260.442 102.188V99.188C259.554 99.188 259.029 98.8773 258.641 98.2588C258.179 97.5232 257.846 96.2276 257.846 94.16H254.846ZM260.442 102.188C261.758 102.188 262.845 101.319 263.681 100.366C264.568 99.356 265.466 97.9189 266.385 96.1238L263.715 94.7562C262.842 96.4597 262.076 97.6466 261.427 98.3863C260.727 99.1828 260.406 99.188 260.442 99.188V102.188ZM266.372 96.1492C268.328 92.5027 269.862 88.1435 270.994 83.0961L268.066 82.4399C266.979 87.2912 265.526 91.38 263.728 94.7308L266.372 96.1492ZM271.028 82.6999C270.944 80.8517 270.902 78.6568 270.902 76.112H267.902C267.902 78.6872 267.945 80.9297 268.032 82.8361L271.028 82.6999ZM270.902 76.112C270.902 73.5706 271.03 65.7812 271.286 52.7174L268.286 52.6586C268.03 65.7068 267.902 73.5334 267.902 76.112H270.902ZM269.657 54.1825L284.505 55.4625L284.763 52.4735L269.915 51.1935L269.657 54.1825ZM338.128 60.496L336.752 61.0931L336.757 61.104L336.762 61.1148L338.128 60.496ZM339.152 94.928L337.689 94.5982L337.686 94.6081L337.684 94.6179L339.152 94.928ZM332.88 110.416L331.64 109.573L331.636 109.578L332.88 110.416ZM309.84 109.52L311.05 108.634L308.34 104.932V109.52H309.84ZM310.096 114.64L309.943 116.132L311.729 116.315L311.592 114.525L310.096 114.64ZM298.832 113.488L297.334 113.563L297.398 114.849L298.679 114.98L298.832 113.488ZM299.472 20.176L299.603 18.6817L298.058 18.5462L297.974 20.0952L299.472 20.176ZM314.064 21.456L315.561 21.5472L315.65 20.0894L314.195 19.9617L314.064 21.456ZM312.528 67.28H311.028V72.4606L313.796 68.0814L312.528 67.28ZM312.528 89.168L311.094 88.7289L311.025 88.953L311.028 89.1872L312.528 89.168ZM312.656 99.152L311.156 99.1712L311.162 99.6367L311.431 100.017L312.656 99.152ZM315.344 102.224L314.423 103.408L314.466 103.442L314.512 103.472L315.344 102.224ZM324.432 95.952L325.85 96.4418L325.852 96.4339L324.432 95.952ZM326.096 73.168L324.633 73.5004L324.64 73.5317L324.649 73.5627L326.096 73.168ZM329.04 55.212C330.793 55.212 332.253 55.6893 333.487 56.61C334.737 57.5437 335.844 59.0007 336.752 61.0931L339.504 59.8989C338.449 57.4687 337.06 55.5337 335.281 54.206C333.485 52.8654 331.383 52.212 329.04 52.212V55.212ZM336.762 61.1148C338.702 65.4002 339.7 70.5554 339.7 76.624H342.7C342.7 70.234 341.65 64.6372 339.494 59.8772L336.762 61.1148ZM339.7 76.624C339.7 82.6559 339.03 88.6466 337.689 94.5982L340.615 95.2578C342.005 89.092 342.7 82.8801 342.7 76.624H339.7ZM337.684 94.6179C336.437 100.523 334.412 105.496 331.64 109.573L334.12 111.259C337.151 106.803 339.307 101.45 340.62 95.2381L337.684 94.6179ZM331.636 109.578C328.985 113.515 326.148 115.188 323.152 115.188V118.188C327.495 118.188 331.143 115.68 334.124 111.254L331.636 109.578ZM323.152 115.188C318.308 115.188 314.3 113.072 311.05 108.634L308.63 110.406C312.378 115.525 317.244 118.188 323.152 118.188V115.188ZM308.34 109.52C308.34 110.773 308.429 112.525 308.6 114.755L311.592 114.525C311.422 112.318 311.34 110.657 311.34 109.52H308.34ZM310.249 113.148L298.985 111.996L298.679 114.98L309.943 116.132L310.249 113.148ZM300.33 113.413C299.82 103.209 299.564 89.4987 299.564 72.272H296.564C296.564 89.52 296.82 103.287 297.334 113.563L300.33 113.413ZM299.564 72.272C299.564 54.9764 300.033 37.638 300.97 20.2568L297.974 20.0952C297.034 37.53 296.564 54.9222 296.564 72.272H299.564ZM299.341 21.6703L313.933 22.9503L314.195 19.9617L299.603 18.6817L299.341 21.6703ZM312.567 21.3648C311.541 38.1993 311.028 53.505 311.028 67.28H314.028C314.028 53.5776 314.539 38.334 315.561 21.5472L312.567 21.3648ZM313.796 68.0814C316.608 63.6332 319.313 60.3853 321.896 58.2629C324.473 56.1456 326.846 55.212 329.04 55.212V52.212C325.943 52.212 322.919 53.5397 319.992 55.9451C317.071 58.3453 314.166 61.8815 311.26 66.4786L313.796 68.0814ZM311.028 89.1872L311.156 99.1712L314.156 99.1328L314.028 89.1488L311.028 89.1872ZM311.431 100.017C312.482 101.506 313.479 102.674 314.423 103.408L316.265 101.04C315.673 100.579 314.878 99.699 313.881 98.287L311.431 100.017ZM314.512 103.472C315.641 104.225 317.145 104.492 318.8 104.492V101.492C317.383 101.492 316.583 101.247 316.176 100.976L314.512 103.472ZM318.8 104.492C320.487 104.492 321.878 103.545 322.979 102.169C324.072 100.803 325.015 98.8591 325.85 96.4418L323.014 95.4622C322.228 97.7382 321.421 99.3145 320.637 100.295C319.86 101.265 319.246 101.492 318.8 101.492V104.492ZM325.852 96.4339C327.517 91.5277 328.364 86.8414 328.364 82.384H325.364C325.364 86.4599 324.59 90.819 323.012 95.4701L325.852 96.4339ZM328.364 82.384C328.364 78.1036 328.112 74.8584 327.543 72.7733L324.649 73.5627C325.104 75.2323 325.364 78.131 325.364 82.384H328.364ZM327.559 72.8356C327.306 71.7248 326.852 70.7131 326.077 69.972C325.27 69.2001 324.251 68.852 323.152 68.852V71.852C323.589 71.852 323.829 71.9733 324.003 72.14C324.21 72.3375 324.459 72.7338 324.633 73.5004L327.559 72.8356ZM323.152 68.852C321.83 68.852 320.654 69.4948 319.646 70.4266C318.638 71.3581 317.682 72.6818 316.758 74.3185C314.907 77.5965 313.024 82.4229 311.094 88.7289L313.962 89.6071C315.872 83.3691 317.68 78.7875 319.37 75.7935C320.217 74.2942 320.994 73.2659 321.682 72.6294C322.37 71.9932 322.853 71.852 323.152 71.852V68.852ZM379.045 95.44L379.809 94.1493L378.516 93.3833L377.753 94.6787L379.045 95.44ZM388.773 101.2L390.073 101.948L390.812 100.664L389.537 99.9093L388.773 101.2ZM384.037 108.368L382.856 107.444L382.843 107.46L382.831 107.476L384.037 108.368ZM353.829 109.904L352.656 110.838L352.664 110.849L353.829 109.904ZM353.061 66.512L351.681 65.9247L351.677 65.9331L351.674 65.9416L353.061 66.512ZM360.357 56.784L361.282 57.9646L361.286 57.9613L360.357 56.784ZM378.405 54.608L377.691 55.9269L377.712 55.9386L377.734 55.9496L378.405 54.608ZM383.269 58.192L382.14 59.1798L382.173 59.2173L382.208 59.2527L383.269 58.192ZM386.597 63.952L385.189 64.4684L385.189 64.4684L386.597 63.952ZM388.517 70.224L387.049 70.533L387.057 70.5696L387.066 70.6057L388.517 70.224ZM389.541 77.264L388.046 77.3886L388.046 77.3886L389.541 77.264ZM390.053 88.4L390.451 89.8463L391.553 89.5432V88.4H390.053ZM363.557 93.52L363.347 92.0348L361.956 92.2319L362.061 93.6322L363.557 93.52ZM365.349 101.712L363.985 102.337L363.985 102.337L365.349 101.712ZM366.373 71.12L364.985 70.552L364.979 70.5657L364.974 70.5794L366.373 71.12ZM363.813 84.176L362.315 84.0985L362.215 86.0397L364.118 85.6447L363.813 84.176ZM375.589 81.488L375.962 82.941L377.089 82.6519V81.488H375.589ZM368.677 106.284C370.803 106.284 372.82 105.261 374.705 103.562C376.591 101.862 378.463 99.3832 380.337 96.2013L377.753 94.6787C375.958 97.7261 374.267 99.9189 372.697 101.334C371.126 102.75 369.794 103.284 368.677 103.284V106.284ZM378.281 96.7307L388.009 102.491L389.537 99.9093L379.809 94.1493L378.281 96.7307ZM387.473 100.452C385.877 103.223 384.337 105.55 382.856 107.444L385.218 109.292C386.809 107.26 388.426 104.809 390.073 101.948L387.473 100.452ZM382.831 107.476C381.536 109.228 379.493 110.983 376.609 112.714L378.153 115.286C381.242 113.433 383.636 111.434 385.243 109.26L382.831 107.476ZM376.609 112.714C373.868 114.358 370.81 115.188 367.397 115.188V118.188C371.323 118.188 374.92 117.226 378.153 115.286L376.609 112.714ZM367.397 115.188C362.514 115.188 358.405 113.164 354.994 108.959L352.664 110.849C356.591 115.689 361.528 118.188 367.397 118.188V115.188ZM355.002 108.97C351.603 104.701 349.825 98.8784 349.825 91.344H346.825C346.825 99.3403 348.716 105.891 352.656 110.838L355.002 108.97ZM349.825 91.344C349.825 82.6514 351.37 74.5692 354.448 67.0823L351.674 65.9416C348.437 73.8148 346.825 82.2873 346.825 91.344H349.825ZM354.441 67.0993C356.058 63.3009 358.341 60.2697 361.282 57.9646L359.432 55.6034C356.058 58.2476 353.478 61.7017 351.681 65.9247L354.441 67.0993ZM361.286 57.9613C364.33 55.5587 367.297 54.444 370.213 54.444V51.444C366.473 51.444 362.87 52.8893 359.428 55.6067L361.286 57.9613ZM370.213 54.444C373.485 54.444 375.94 54.979 377.691 55.9269L379.119 53.2891C376.774 52.0184 373.768 51.444 370.213 51.444V54.444ZM377.734 55.9496C379.652 56.9085 381.103 57.9939 382.14 59.1798L384.398 57.2042C383.046 55.6594 381.254 54.3555 379.076 53.2664L377.734 55.9496ZM382.208 59.2527C383.276 60.3207 384.29 62.0187 385.189 64.4684L388.005 63.4356C387.026 60.7653 385.822 58.6233 384.33 57.1313L382.208 59.2527ZM385.189 64.4684C386.116 66.9979 386.729 69.0124 387.049 70.533L389.985 69.915C389.622 68.1929 388.955 66.0261 388.005 63.4356L385.189 64.4684ZM387.066 70.6057C387.46 72.1001 387.792 74.3442 388.046 77.3886L391.036 77.1394C390.778 74.0398 390.428 71.5905 389.968 69.8423L387.066 70.6057ZM388.046 77.3886C388.385 81.4523 388.553 85.1219 388.553 88.4H391.553C391.553 85.0221 391.38 81.2677 391.036 77.1394L388.046 77.3886ZM389.655 86.9537C382.914 88.8076 374.151 90.5035 363.347 92.0348L363.767 95.0052C374.638 93.4645 383.539 91.7471 390.451 89.8463L389.655 86.9537ZM362.061 93.6322C362.324 97.1404 362.945 100.066 363.985 102.337L366.713 101.087C365.876 99.262 365.302 96.7263 365.053 93.4078L362.061 93.6322ZM363.985 102.337C364.973 104.491 366.453 106.284 368.677 106.284V103.284C368.341 103.284 367.603 103.029 366.713 101.087L363.985 102.337ZM371.493 63.988C369.998 63.988 368.728 64.7503 367.695 65.887C366.675 67.0093 365.784 68.5978 364.985 70.552L367.761 71.6879C368.498 69.8875 369.229 68.66 369.915 67.905C370.588 67.1643 371.11 66.988 371.493 66.988V63.988ZM364.974 70.5794C363.454 74.5119 362.577 79.0258 362.315 84.0985L365.311 84.2535C365.561 79.4275 366.39 75.2374 367.772 71.6606L364.974 70.5794ZM364.118 85.6447C368.656 84.7028 372.605 83.8017 375.962 82.941L375.216 80.035C371.917 80.881 368.015 81.7719 363.508 82.7073L364.118 85.6447ZM377.089 81.488C377.089 76.1231 376.749 71.9701 376.018 69.116C375.655 67.6958 375.164 66.4723 374.475 65.5744C373.752 64.6329 372.75 63.988 371.493 63.988V66.988C371.602 66.988 371.794 67.0097 372.095 67.4016C372.43 67.837 372.793 68.6135 373.112 69.86C373.747 72.3392 374.089 76.1862 374.089 81.488H377.089Z" fill="black"/>
    <path d="M47.2108 105.96C42.0908 105.96 37.4508 104.936 33.2908 102.888C29.1308 100.776 25.8348 97.672 23.4028 93.576C20.9708 89.48 19.7868 84.392 19.8508 78.312C19.8508 72.296 21.0668 67.176 23.4988 62.952C25.9308 58.728 29.2268 55.528 33.3868 53.352C37.5468 51.112 42.2508 49.992 47.4988 49.992C52.6828 49.992 57.0988 50.92 60.7468 52.776C64.3948 54.632 67.2428 57.128 69.2908 60.264C71.4028 63.4 72.7788 66.856 73.4188 70.632H61.4188C61.0348 67.944 60.0748 65.928 58.5388 64.584C57.0028 63.176 55.2108 62.216 53.1628 61.704C51.1788 61.192 49.2908 60.936 47.4988 60.936C42.1868 60.936 38.1548 62.376 35.4028 65.256C32.6508 68.136 31.2748 72.2 31.2748 77.448C31.2748 83.08 32.5868 87.432 35.2108 90.504C37.8988 93.576 41.9628 95.112 47.4028 95.112C49.2588 95.112 51.2108 94.824 53.2588 94.248C55.3068 93.672 57.0988 92.648 58.6348 91.176C60.2348 89.64 61.2268 87.528 61.6108 84.84H73.7068C73.0028 88.744 71.5948 92.296 69.4828 95.496C67.3708 98.632 64.4588 101.16 60.7468 103.08C57.0348 105 52.5228 105.96 47.2108 105.96ZM82.2958 105V50.952H93.9118V95.112H118.872V105H82.2958ZM153.209 95.112V105H127.577V95.112H134.681V60.84H127.577V50.952H153.209V60.84H146.201V95.112H153.209Z" fill="white"/>
    <path d="M33.2908 102.888L32.838 103.78L32.8491 103.785L33.2908 102.888ZM23.4028 93.576L22.5429 94.0865L22.5429 94.0865L23.4028 93.576ZM19.8508 78.312L20.8508 78.3225V78.312H19.8508ZM23.4988 62.952L22.6321 62.453L22.6321 62.453L23.4988 62.952ZM33.3868 53.352L33.8503 54.2382L33.8609 54.2325L33.3868 53.352ZM60.7468 52.776L61.2002 51.8847L61.2002 51.8847L60.7468 52.776ZM69.2908 60.264L68.4535 60.8108L68.4574 60.8167L68.4613 60.8226L69.2908 60.264ZM73.4188 70.632V71.632H74.6025L74.4047 70.4649L73.4188 70.632ZM61.4188 70.632L60.4288 70.7734L60.5515 71.632H61.4188V70.632ZM58.5388 64.584L57.863 65.3212L57.8715 65.329L57.8802 65.3366L58.5388 64.584ZM53.1628 61.704L52.9129 62.6723L52.9202 62.6741L53.1628 61.704ZM35.4028 65.256L34.6798 64.5651L34.6798 64.5651L35.4028 65.256ZM35.2108 90.504L34.4503 91.1535L34.4582 91.1625L35.2108 90.504ZM53.2588 94.248L53.5295 95.2107L53.5295 95.2107L53.2588 94.248ZM58.6348 91.176L59.3267 91.898L59.3273 91.8974L58.6348 91.176ZM61.6108 84.84V83.84H60.7435L60.6208 84.6986L61.6108 84.84ZM73.7068 84.84L74.6909 85.0175L74.9032 83.84H73.7068V84.84ZM69.4828 95.496L70.3122 96.0546L70.3174 96.0468L69.4828 95.496ZM60.7468 103.08L60.2873 102.192L60.2873 102.192L60.7468 103.08ZM47.2108 104.96C42.2277 104.96 37.7412 103.964 33.7324 101.991L32.8491 103.785C37.1603 105.908 41.9538 106.96 47.2108 106.96V104.96ZM33.7434 101.996C29.7563 99.9721 26.5999 97.002 24.2626 93.0655L22.5429 94.0865C25.0696 98.342 28.5052 101.58 32.8381 103.78L33.7434 101.996ZM24.2626 93.0655C21.9467 89.1651 20.7881 84.2692 20.8507 78.3225L18.8508 78.3015C18.7854 84.5148 19.9948 89.7949 22.5429 94.0865L24.2626 93.0655ZM20.8508 78.312C20.8508 72.4304 22.039 67.4914 24.3654 63.451L22.6321 62.453C20.0945 66.8606 18.8508 72.1616 18.8508 78.312H20.8508ZM24.3654 63.451C26.7063 59.3851 29.8653 56.3225 33.8502 54.2381L32.9233 52.4659C28.5882 54.7335 25.1552 58.0709 22.6321 62.453L24.3654 63.451ZM33.8609 54.2325C37.8595 52.0793 42.3976 50.992 47.4988 50.992V48.992C42.1039 48.992 37.234 50.1447 32.9127 52.4715L33.8609 54.2325ZM47.4988 50.992C52.5661 50.992 56.8182 51.8992 60.2933 53.6673L61.2002 51.8847C57.3793 49.9408 52.7994 48.992 47.4988 48.992V50.992ZM60.2933 53.6673C63.8003 55.4515 66.5098 57.8346 68.4535 60.8108L70.128 59.7172C67.9757 56.4214 64.9892 53.8124 61.2002 51.8847L60.2933 53.6673ZM68.4613 60.8226C70.4929 63.8391 71.8162 67.1614 72.4328 70.7991L74.4047 70.4649C73.7413 66.5506 72.3126 62.9609 70.1202 59.7054L68.4613 60.8226ZM73.4188 69.632H61.4188V71.632H73.4188V69.632ZM62.4087 70.4906C62.0022 67.6449 60.9655 65.3786 59.1973 63.8314L57.8802 65.3366C59.184 66.4774 60.0673 68.2431 60.4288 70.7734L62.4087 70.4906ZM59.2145 63.8468C57.5541 62.3248 55.6126 61.2857 53.4053 60.7339L52.9202 62.6741C54.8089 63.1463 56.4514 64.0272 57.863 65.3212L59.2145 63.8468ZM53.4126 60.7357C51.3584 60.2056 49.3861 59.936 47.4988 59.936V61.936C49.1954 61.936 50.9991 62.1784 52.9129 62.6723L53.4126 60.7357ZM47.4988 59.936C42.0084 59.936 37.6772 61.4283 34.6798 64.5651L36.1257 65.9469C38.6323 63.3237 42.3651 61.936 47.4988 61.936V59.936ZM34.6798 64.5651C31.6993 67.6843 30.2748 72.0268 30.2748 77.448H32.2748C32.2748 72.3732 33.6022 68.5877 36.1257 65.9469L34.6798 64.5651ZM30.2748 77.448C30.2748 83.2249 31.6204 87.8403 34.4504 91.1535L35.9711 89.8545C33.5531 87.0237 32.2748 82.9351 32.2748 77.448H30.2748ZM34.4582 91.1625C37.3939 94.5176 41.7757 96.112 47.4028 96.112V94.112C42.1498 94.112 38.4036 92.6344 35.9633 89.8455L34.4582 91.1625ZM47.4028 96.112C49.3625 96.112 51.406 95.8079 53.5295 95.2107L52.988 93.2853C51.0155 93.8401 49.155 94.112 47.4028 94.112V96.112ZM53.5295 95.2107C55.7355 94.5902 57.6721 93.4836 59.3267 91.898L57.9428 90.454C56.5254 91.8124 54.878 92.7538 52.988 93.2853L53.5295 95.2107ZM59.3273 91.8974C61.122 90.1745 62.1924 87.8396 62.6007 84.9814L60.6208 84.6986C60.2611 87.2164 59.3475 89.1055 57.9422 90.4546L59.3273 91.8974ZM61.6108 85.84H73.7068V83.84H61.6108V85.84ZM72.7226 84.6625C72.0418 88.438 70.6829 91.8621 68.6481 94.9452L70.3174 96.0468C72.5066 92.7299 73.9637 89.05 74.6909 85.0175L72.7226 84.6625ZM68.6533 94.9374C66.6446 97.92 63.8663 100.341 60.2873 102.192L61.2062 103.968C65.0512 101.979 68.0969 99.344 70.3122 96.0546L68.6533 94.9374ZM60.2873 102.192C56.7506 104.021 52.4051 104.96 47.2108 104.96V106.96C52.6404 106.96 57.3189 105.979 61.2062 103.968L60.2873 102.192ZM82.2958 105H81.2958V106H82.2958V105ZM82.2958 50.952V49.952H81.2958V50.952H82.2958ZM93.9118 50.952H94.9118V49.952H93.9118V50.952ZM93.9118 95.112H92.9118V96.112H93.9118V95.112ZM118.872 95.112H119.872V94.112H118.872V95.112ZM118.872 105V106H119.872V105H118.872ZM83.2958 105V50.952H81.2958V105H83.2958ZM82.2958 51.952H93.9118V49.952H82.2958V51.952ZM92.9118 50.952V95.112H94.9118V50.952H92.9118ZM93.9118 96.112H118.872V94.112H93.9118V96.112ZM117.872 95.112V105H119.872V95.112H117.872ZM118.872 104H82.2958V106H118.872V104ZM153.209 95.112H154.209V94.112H153.209V95.112ZM153.209 105V106H154.209V105H153.209ZM127.577 105H126.577V106H127.577V105ZM127.577 95.112V94.112H126.577V95.112H127.577ZM134.681 95.112V96.112H135.681V95.112H134.681ZM134.681 60.84H135.681V59.84H134.681V60.84ZM127.577 60.84H126.577V61.84H127.577V60.84ZM127.577 50.952V49.952H126.577V50.952H127.577ZM153.209 50.952H154.209V49.952H153.209V50.952ZM153.209 60.84V61.84H154.209V60.84H153.209ZM146.201 60.84V59.84H145.201V60.84H146.201ZM146.201 95.112H145.201V96.112H146.201V95.112ZM152.209 95.112V105H154.209V95.112H152.209ZM153.209 104H127.577V106H153.209V104ZM128.577 105V95.112H126.577V105H128.577ZM127.577 96.112H134.681V94.112H127.577V96.112ZM135.681 95.112V60.84H133.681V95.112H135.681ZM134.681 59.84H127.577V61.84H134.681V59.84ZM128.577 60.84V50.952H126.577V60.84H128.577ZM127.577 51.952H153.209V49.952H127.577V51.952ZM152.209 50.952V60.84H154.209V50.952H152.209ZM153.209 59.84H146.201V61.84H153.209V59.84ZM145.201 60.84V95.112H147.201V60.84H145.201ZM146.201 96.112H153.209V94.112H146.201V96.112Z" fill="#212C8E"/>
</svg>
